<svg height='300px' width='300px'  fill="#66D6FF" xmlns="http://www.w3.org/2000/svg" xmlns:xlink="http://www.w3.org/1999/xlink" viewBox="0 0 32 32" version="1.1" x="0px" y="0px"><title>sound/play</title><desc>Created with Sketch.</desc><g stroke="none" stroke-width="1" fill="none" fill-rule="evenodd"><path d="M10.4288494,5.39896012 L25.1300753,13.3621241 C26.5869339,14.1512559 27.1282335,15.9719908 26.3391017,17.4288494 C26.0619018,17.9406032 25.641829,18.360676 25.1300753,18.6378759 L10.4288494,26.6010399 C8.97199081,27.3901716 7.15125586,26.8488721 6.3621241,25.3920134 C6.12446489,24.953258 6,24.4621512 6,23.963164 L6,8.03683602 C6,6.37998177 7.34314575,5.03683602 9,5.03683602 C9.49898723,5.03683602 9.99009399,5.16130091 10.4288494,5.39896012 Z M9.47628315,7.15754405 C9.33003133,7.07832431 9.16632908,7.03683602 9,7.03683602 C8.44771525,7.03683602 8,7.48455127 8,8.03683602 L8,23.963164 C8,24.1294931 8.0414883,24.2931953 8.12070803,24.4394471 C8.38375195,24.9250667 8.9906636,25.1054999 9.47628315,24.842456 L24.177509,16.879292 C24.3480935,16.786892 24.4881178,16.6468677 24.5805178,16.4762831 C24.8435617,15.9906636 24.6631285,15.383752 24.177509,15.120708 L9.47628315,7.15754405 Z" fill="#66D6FF" fill-rule="nonzero"></path></g></svg>